Coordinates
version=1
nRows=10
nColumns=40
inDegrees=yes

Units are S.I. units (second, meters, Newtons, ...)
Angles are in degrees.

endheader
time	pelvis_tilt	pelvis_list	pelvis_rotation	pelvis_tx	pelvis_ty	pelvis_tz	hip_flexion_r	hip_adduction_r	hip_rotation_r	knee_angle_r	knee_angle_r_beta	ankle_angle_r	subtalar_angle_r	mtp_angle_r	hip_flexion_l	hip_adduction_l	hip_rotation_l	knee_angle_l	knee_angle_l_beta	ankle_angle_l	subtalar_angle_l	mtp_angle_l	lumbar_extension	lumbar_bending	lumbar_rotation	arm_flex_r	arm_add_r	arm_rot_r	elbow_flex_r	pro_sup_r	wrist_flex_r	wrist_dev_r	arm_flex_l	arm_add_l	arm_rot_l	elbow_flex_l	pro_sup_l	wrist_flex_l	wrist_dev_l
     46.79500000	     -4.39760265	     -4.86447583	      3.37078567	      0.95137779	      0.92147146	      0.46439177	      0.52337262	      0.23210891	    -15.25759226	     21.77353410	     21.77353410	     18.35289493	      3.57374850	     -4.38094385	     27.31784477	     -6.00359733	     -1.37073958	     26.82461199	     26.82461199	      7.18846088	    -15.40310288	      6.39567380	     -8.54761901	      6.18140569	      3.68052688	     24.77620490	    -15.60386104	      2.08095716	     94.00846706	     44.14887797	      0.00000000	      0.00000000	     -6.48869346	    -10.39306611	      4.28870365	     33.65887778	     44.34871733	      0.00000000	      0.00000000
     46.80800000	     -4.46746509	     -4.72649930	      3.23245830	      0.95192510	      0.92259653	      0.46132249	      1.42382750	     -0.55732452	    -15.05565419	     24.19213728	     24.19213728	     17.69899617	      3.03151828	     -5.30120251	     26.67826427	     -5.78182074	     -1.77163146	     26.57860940	     26.57860940	      7.72401180	    -15.07899520	      6.32680210	     -8.48519589	      6.10069994	      3.76752935	     23.23487190	    -15.88642777	      2.06057823	     92.54377600	     44.20070474	      0.00000000	      0.00000000	     -5.51217612	    -10.56539632	      4.08827320	     34.14992433	     44.40304780	      0.00000000	      0.00000000
     46.82100000	     -4.28218531	     -4.96179079	      3.23985239	      0.95254642	      0.92419454	      0.45835229	      1.97000916	     -0.87350298	    -14.99472430	     26.37415788	     26.37415788	     16.80156433	      2.56845229	     -5.80949864	     25.78900023	     -5.89342229	     -1.80960104	     26.27260601	     26.27260601	      8.23494763	    -14.80730364	      6.20460813	     -8.77642649	      6.51271732	      3.45191243	     21.70658143	    -15.85681967	      2.19982859	     91.49994989	     44.22753635	      0.00000000	      0.00000000	     -4.64629034	    -10.75188656	      3.96264577	     34.57518663	     44.43712329	      0.00000000	      0.00000000
     46.83400000	     -4.64550795	     -4.61027421	      2.92761053	      0.95245225	      0.92462606	      0.45570336	      3.76857845	     -1.86845932	    -14.04027992	     29.45556253	     29.45556253	     13.86197901	     -0.02889538	    -12.40063984	     25.45741165	     -5.56754627	     -2.68444078	     26.01494175	     26.01494175	      8.67914632	    -14.12305812	      5.95632125	     -8.37578431	      6.07400589	      3.45395944	     20.75960007	    -15.50561547	      1.42537642	     87.55164781	     44.45073457	      0.00000000	      0.00000000	     -4.08788630	    -11.03340988	      2.89116910	     36.31462977	     44.69283424	      0.00000000	      0.00000000
     46.84700000	     -4.68078393	     -4.47748069	      2.71884816	      0.95247131	      0.92553128	      0.45311420	      5.37849438	     -2.68717552	    -13.41976951	     33.00048863	     33.00048863	     12.65865964	     -1.28778301	    -13.05699088	     24.75788197	     -5.40718333	     -3.21998982	     25.67732688	     25.67732688	      9.08468980	    -13.70257137	      5.72185259	     -8.47112513	      5.97351989	      3.57869727	     19.10574716	    -15.77894077	      1.61684202	     86.02801026	     44.49445598	      0.00000000	      0.00000000	     -2.98575776	    -11.34517390	      2.66124941	     37.01886037	     44.74785200	      0.00000000	      0.00000000
     46.86000000	     -4.77023182	     -4.54079552	      2.52448551	      0.95225298	      0.92622799	      0.45091010	      7.17694318	     -3.04120436	    -12.31524913	     36.45978584	     36.45978584	     10.40947631	     -4.00872728	    -15.23881275	     24.20805537	     -5.49482247	     -3.75148018	     25.41738919	     25.41738919	      9.37092041	    -13.09841657	      5.05395559	     -8.43870520	      6.04280734	      3.33245904	     18.06330269	    -15.23673180	      1.05591089	     82.55078422	     44.65757108	      0.00000000	      0.00000000	     -2.36323745	    -11.77235620	      2.19831982	     38.72933003	     44.87655091	      0.00000000	      0.00000000
     46.87300000	     -4.78766448	     -4.40065604	      2.26823335	      0.95183538	      0.92675802	      0.44877351	      9.20674070	     -3.78700851	    -11.52565134	     40.49350570	     40.49350570	      8.75787104	     -5.46905966	    -15.51241233	     23.59456134	     -5.34182143	     -4.23204500	     25.20598428	     25.20598428	      9.72392704	    -12.85329776	      4.82051161	     -8.62423615	      5.91807696	      3.44630784	     16.45145174	    -15.41312989	      1.24021894	     80.91880645	     44.70356339	      0.00000000	      0.00000000	     -1.21684112	    -12.21782182	      1.95596408	     39.54860042	     44.93149763	      0.00000000	      0.00000000
     46.88600000	     -4.84958871	     -4.33645950	      2.02158830	      0.95122732	      0.92706425	      0.44689178	     11.42491722	     -4.24132313	    -10.41462898	     44.52308602	     44.52308602	      6.92548173	     -7.43761446	    -15.40093076	     23.07977183	     -5.26678233	     -4.61125858	     25.04572757	     25.04572757	     10.09953129	    -12.58120987	      4.50131780	     -8.70715493	      5.85632682	      3.60322991	     14.89077182	    -15.44973934	      1.20489683	     78.69142370	     44.77675399	      0.00000000	      0.00000000	     -0.04152893	    -12.67382386	      1.72826709	     40.61073666	     44.98655669	      0.00000000	      0.00000000
     46.89900000	     -4.77816903	     -4.21950305	      1.81646226	      0.95049521	      0.92738666	      0.44517664	     13.56409261	     -4.70011801	     -9.42955123	     48.49344485	     48.49344485	      5.09705313	     -9.18639670	    -15.01628281	     22.50704604	     -5.14426997	     -4.96383422	     25.01480312	     25.01480312	     10.43698982	    -12.38744646	      4.20272073	     -8.99324661	      5.69499874	      3.56700044	     13.39282437	    -15.27701155	      1.20741504	     76.60727528	     44.84245109	      0.00000000	      0.00000000	      1.28185854	    -13.25161734	      1.51755703	     41.63524073	     45.03767733	      0.00000000	      0.00000000
     46.91200000	     -4.91856664	     -4.26870028	      1.48887707	      0.94959573	      0.92743161	      0.44390590	     16.03135900	     -4.68092118	     -8.07812443	     52.28763468	     52.28763468	      3.29922401	    -11.22097239	    -13.83570158	     22.14302293	     -5.23707680	     -5.36279428	     24.91222670	     24.91222670	     10.74611972	    -12.21918502	      3.81126616	     -9.00851305	      5.77100135	      3.80250847	     12.02502804	    -15.16994640	      0.83036322	     73.20544605	     44.96751703	      0.00000000	      0.00000000	      2.33481980	    -13.73581629	      1.37874642	     43.08538206	     45.08613742	      0.00000000	      0.00000000
